<?xml version="1.0" encoding="UTF-8" standalone="no"?>
<svg
   width="228"
   height="315"
   version="1.1"
   id="svg218"
   sodipodi:docname="formax_logo.svg"
   inkscape:version="1.2 (dc2aedaf03, 2022-05-15)"
   xmlns:inkscape="http://www.inkscape.org/namespaces/inkscape"
   xmlns:sodipodi="http://sodipodi.sourceforge.net/DTD/sodipodi-0.dtd"
   xmlns="http://www.w3.org/2000/svg"
   xmlns:svg="http://www.w3.org/2000/svg">
  <defs
     id="defs222">
    <inkscape:perspective
       sodipodi:type="inkscape:persp3d"
       inkscape:vp_x="-45.131656 : -277.98218 : 1"
       inkscape:vp_y="0 : 810.22095 : 0"
       inkscape:vp_z="2489.2609 : -277.98218 : 1"
       inkscape:persp3d-origin="1222.0646 : -359.00428 : 1"
       id="perspective455" />
  </defs>
  <sodipodi:namedview
     id="namedview220"
     pagecolor="#ffffff"
     bordercolor="#000000"
     borderopacity="0.25"
     inkscape:showpageshadow="2"
     inkscape:pageopacity="0.0"
     inkscape:pagecheckerboard="0"
     inkscape:deskcolor="#d1d1d1"
     showgrid="false"
     inkscape:zoom="0.6972296"
     inkscape:cx="352.82495"
     inkscape:cy="178.56385"
     inkscape:window-width="1280"
     inkscape:window-height="658"
     inkscape:window-x="-6"
     inkscape:window-y="-6"
     inkscape:window-maximized="1"
     inkscape:current-layer="g216" />
  <g
     id="g216">
    <title
       id="title208">Layer 1</title>
    <g
       aria-label="F"
       transform="matrix(0.93275214,0.2095707,-0.00488388,1.0709989,-378.64141,-109.00283)"
       id="text230"
       style="font-size:373.101px;font-family:Tourney;-inkscape-font-specification:Tourney;stroke-width:0.932752">
      <path
         d="M 477.07941,275.49561 V 14.324896 H 643.10936 V 67.11869 H 529.8732 v 50.18209 h 106.14724 v 52.79379 H 529.8732 v 105.40104 z m 5.03686,-5.03687 h 42.72007 V 165.05771 H 630.98357 V 122.33764 H 524.83634 V 62.081826 h 113.4227 V 19.36176 H 482.11627 Z"
         id="path1245" />
    </g>
    <g
       aria-label="F"
       transform="matrix(0.93275211,0.2095707,-0.00488388,1.0709989,-392.64141,-109.00283)"
       id="text230-0"
       style="font-size:373.101px;font-family:Tourney;-inkscape-font-specification:Tourney;stroke-width:0.932752">
      <path
         d="M 431.04953,296.0831 V 34.91239 H 597.07948 V 87.706184 H 483.84332 v 50.182086 h 106.14724 v 52.79379 H 483.84332 V 296.0831 Z m 5.03686,-5.03686 h 42.72007 V 185.6452 H 584.9537 V 142.92513 H 478.80646 V 82.66932 H 592.22917 V 39.949254 H 436.08639 Z"
         id="path459" />
    </g>
    <rect
       style="fill:#000000;stroke-width:0.788937"
       id="rect391"
       width="58.37392"
       height="7.2381468"
       x="-13.646396"
       y="27.538664"
       transform="matrix(0.97719648,-0.21233711,0.81905257,0.57371847,0,0)" />
    <rect
       style="fill:#000000;stroke-width:0.788937"
       id="rect391-0"
       width="58.37392"
       height="7.2381468"
       x="61.348141"
       y="118.63559"
       transform="matrix(0.97719648,-0.21233711,0.81905257,0.57371847,0,0)" />
    <rect
       style="fill:#000000;stroke-width:0.788937"
       id="rect391-0-2-4"
       width="58.37392"
       height="7.2381468"
       x="-113.52146"
       y="201.19199"
       transform="matrix(0.97719648,-0.21233711,0.81905257,0.57371847,0,0)" />
    <rect
       style="fill:#000000;stroke-width:0.788937"
       id="rect391-0-2-5"
       width="58.37392"
       height="7.2381468"
       x="5.2322059"
       y="186.57117"
       transform="matrix(0.97719648,-0.21233711,0.81905257,0.57371847,0,0)" />
    <rect
       style="fill:#000000;stroke-width:0.788937"
       id="rect391-0-2-5-7"
       width="58.37392"
       height="7.2381468"
       x="-64.405365"
       y="261.2276"
       transform="matrix(0.97719648,-0.21233711,0.81905257,0.57371847,0,0)" />
    <rect
       style="fill:#000000;stroke-width:0.788937"
       id="rect391-0-2-5-7-4"
       width="58.37392"
       height="7.2381468"
       x="-121.66074"
       y="329.24158"
       transform="matrix(0.97719648,-0.21233711,0.81905257,0.57371847,0,0)" />
    <rect
       style="fill:#000000;stroke-width:0.788937"
       id="rect391-0-2-5-7-4-6-8"
       width="58.37392"
       height="7.2381468"
       x="-300.61536"
       y="420.9057"
       transform="matrix(0.97719648,-0.21233711,0.81905257,0.57371847,0,0)" />
    <rect
       style="fill:#000000;stroke-width:0.788937"
       id="rect391-0-2-5-7-4-6-8-1"
       width="58.37392"
       height="7.2381468"
       x="-319.52737"
       y="394.21942"
       transform="matrix(0.97719648,-0.21233711,0.81905257,0.57371847,0,0)" />
    <path
       style="fill:#4d4d4d;fill-opacity:0;stroke-width:0.358562"
       d="m 52.084449,299.63972 c -7.4428,-1.69633 -13.33218,-3.19508 -13.08751,-3.33055 0.54396,-0.30119 26.66203,-7.8461 27.16068,-7.8461 0.22325,0 0.35561,2.66919 0.35561,7.17124 0,5.51971 -0.10322,7.16185 -0.4482,7.13045 -0.24651,-0.0224 -6.53777,-1.4287 -13.98058,-3.12504 z"
       id="path1017" />
    <path
       style="fill:#4d4d4d;fill-opacity:0;stroke-width:0.358562"
       d="m 52.084449,299.63972 c -7.4428,-1.69633 -13.33218,-3.19508 -13.08751,-3.33055 0.54396,-0.30119 26.66203,-7.8461 27.16068,-7.8461 0.22325,0 0.35561,2.66919 0.35561,7.17124 0,5.51971 -0.10322,7.16185 -0.4482,7.13045 -0.24651,-0.0224 -6.53777,-1.4287 -13.98058,-3.12504 z"
       id="path1019" />
    <path
       style="fill:#ff00ff;fill-opacity:0;stroke-width:0.358562"
       d="m 71.533099,295.72122 c 0,-7.4982 0.0437,-8.04757 0.62748,-7.89594 0.34512,0.0896 7.38389,1.67501 15.64172,3.52304 8.25783,1.84804 14.792621,3.43536 14.521761,3.52738 -0.27086,0.092 -7.309641,2.13316 -15.641721,4.53587 l -15.14924,4.36856 z"
       id="path1021" />
    <path
       style="fill:#ff00ff;fill-opacity:0;stroke-width:0.358562"
       d="m 71.533099,295.72122 c 0,-7.4982 0.0437,-8.04757 0.62748,-7.89594 0.34512,0.0896 7.38389,1.67501 15.64172,3.52304 8.25783,1.84804 14.792621,3.43536 14.521761,3.52738 -0.27086,0.092 -7.309641,2.13316 -15.641721,4.53587 l -15.14924,4.36856 z"
       id="path1092" />
  </g>
</svg>
